<svg width="128" height="128" viewBox="0 0 128 128" fill="none" xmlns="http://www.w3.org/2000/svg">
<rect width="128" height="128" rx="10" fill="#2E2E2E"/>
<path d="M47.1729 119H52.6152V108.1H47.2327C45.5565 108.067 30.8457 107.157 30.8457 86.3C30.8457 75.4381 27.2265 68.6093 22.6713 64.5C27.2265 60.3907 30.8457 53.5618 30.8457 42.7C30.8457 21.8429 45.5565 20.9327 47.1729 20.9H52.6152V10H47.162C37.7521 10.0218 19.961 16.8888 19.961 42.7C19.961 57.96 10.8286 58.9955 9 59.05L9.07619 69.95C9.52247 69.95 19.961 70.1353 19.961 86.3C19.961 112.111 37.7521 118.978 47.1729 119ZM117.924 59.05C117.478 59.05 107.039 58.8647 107.039 42.7C107.039 16.8888 89.2479 10.0218 79.8271 10H74.3848V20.9H79.7673C81.4435 20.9327 96.1543 21.8429 96.1543 42.7C96.1543 53.5618 99.7735 60.3907 104.329 64.5C99.7735 68.6093 96.1543 75.4381 96.1543 86.3C96.1543 107.157 81.4435 108.067 79.8271 108.1H74.3848V119H79.838C89.2479 118.978 107.039 112.111 107.039 86.3C107.039 71.04 116.171 70.0045 118 69.95L117.924 59.05Z" fill="#FFB800"/>
<path d="M36.448 58.848C36.576 55.424 37.696 52.784 39.808 50.928C41.92 49.072 44.784 48.144 48.4 48.144C50.8 48.144 52.848 48.56 54.544 49.392C56.272 50.224 57.568 51.36 58.432 52.8C59.328 54.24 59.776 55.856 59.776 57.648C59.776 59.76 59.248 61.488 58.192 62.832C57.136 64.144 55.904 65.04 54.496 65.52V65.712C56.32 66.32 57.76 67.328 58.816 68.736C59.872 70.144 60.4 71.952 60.4 74.16C60.4 76.144 59.936 77.904 59.008 79.44C58.112 80.944 56.784 82.128 55.024 82.992C53.296 83.856 51.232 84.288 48.832 84.288C44.992 84.288 41.92 83.344 39.616 81.456C37.344 79.568 36.144 76.72 36.016 72.912H43.984C44.016 74.32 44.416 75.44 45.184 76.272C45.952 77.072 47.072 77.472 48.544 77.472C49.792 77.472 50.752 77.12 51.424 76.416C52.128 75.68 52.48 74.72 52.48 73.536C52.48 72 51.984 70.896 50.992 70.224C50.032 69.52 48.48 69.168 46.336 69.168H44.8V62.496H46.336C47.968 62.496 49.28 62.224 50.272 61.68C51.296 61.104 51.808 60.096 51.808 58.656C51.808 57.504 51.488 56.608 50.848 55.968C50.208 55.328 49.328 55.008 48.208 55.008C46.992 55.008 46.08 55.376 45.472 56.112C44.896 56.848 44.56 57.76 44.464 58.848H36.448ZM65.2225 66C65.2225 60.496 66.2785 56.16 68.3905 52.992C70.5345 49.824 73.9745 48.24 78.7105 48.24C83.4465 48.24 86.8705 49.824 88.9825 52.992C91.1265 56.16 92.1985 60.496 92.1985 66C92.1985 71.568 91.1265 75.936 88.9825 79.104C86.8705 82.272 83.4465 83.856 78.7105 83.856C73.9745 83.856 70.5345 82.272 68.3905 79.104C66.2785 75.936 65.2225 71.568 65.2225 66ZM84.1345 66C84.1345 62.768 83.7825 60.288 83.0785 58.56C82.3745 56.8 80.9185 55.92 78.7105 55.92C76.5025 55.92 75.0465 56.8 74.3425 58.56C73.6385 60.288 73.2865 62.768 73.2865 66C73.2865 68.176 73.4145 69.984 73.6705 71.424C73.9265 72.832 74.4385 73.984 75.2065 74.88C76.0065 75.744 77.1745 76.176 78.7105 76.176C80.2465 76.176 81.3985 75.744 82.1665 74.88C82.9665 73.984 83.4945 72.832 83.7505 71.424C84.0065 69.984 84.1345 68.176 84.1345 66Z" fill="white"/>
</svg>
