<svg width="830" height="830" viewBox="0 0 830 830" fill="none" xmlns="http://www.w3.org/2000/svg">
<rect width="830" height="830" rx="100" fill="#2E2E2E"/>
<path d="M316.687 742H349.291V676.7H317.046C307.003 676.504 218.874 671.052 218.874 546.1C218.874 481.029 197.192 440.118 169.902 415.5C197.192 390.882 218.874 349.971 218.874 284.9C218.874 159.948 307.003 154.496 316.687 154.3H349.291V89H316.622C260.249 89.1306 153.665 130.27 153.665 284.9C153.665 376.32 98.9551 382.524 88 382.85L88.4565 448.15C91.13 448.15 153.665 449.26 153.665 546.1C153.665 700.73 260.249 741.869 316.687 742ZM740.544 382.85C737.87 382.85 675.335 381.74 675.335 284.9C675.335 130.27 568.751 89.1306 512.313 89H479.709V154.3H511.954C521.997 154.496 610.126 159.948 610.126 284.9C610.126 349.971 631.808 390.882 659.098 415.5C631.808 440.118 610.126 481.029 610.126 546.1C610.126 671.052 521.997 676.504 512.313 676.7H479.709V742H512.378C568.751 741.869 675.335 700.73 675.335 546.1C675.335 454.68 730.045 448.477 741 448.15L740.544 382.85Z" fill="#FFB800"/>
<path d="M298.2 391.2C298.733 376.933 303.4 365.933 312.2 358.2C321 350.467 332.933 346.6 348 346.6C358 346.6 366.533 348.333 373.6 351.8C380.8 355.267 386.2 360 389.8 366C393.533 372 395.4 378.733 395.4 386.2C395.4 395 393.2 402.2 388.8 407.8C384.4 413.267 379.267 417 373.4 419V419.8C381 422.333 387 426.533 391.4 432.4C395.8 438.267 398 445.8 398 455C398 463.267 396.067 470.6 392.2 477C388.467 483.267 382.933 488.2 375.6 491.8C368.4 495.4 359.8 497.2 349.8 497.2C333.8 497.2 321 493.267 311.4 485.4C301.933 477.533 296.933 465.667 296.4 449.8H329.6C329.733 455.667 331.4 460.333 334.6 463.8C337.8 467.133 342.467 468.8 348.6 468.8C353.8 468.8 357.8 467.333 360.6 464.4C363.533 461.333 365 457.333 365 452.4C365 446 362.933 441.4 358.8 438.6C354.8 435.667 348.333 434.2 339.4 434.2H333V406.4H339.4C346.2 406.4 351.667 405.267 355.8 403C360.067 400.6 362.2 396.4 362.2 390.4C362.2 385.6 360.867 381.867 358.2 379.2C355.533 376.533 351.867 375.2 347.2 375.2C342.133 375.2 338.333 376.733 335.8 379.8C333.4 382.867 332 386.667 331.6 391.2H298.2ZM418.094 421C418.094 398.067 422.494 380 431.294 366.8C440.227 353.6 454.56 347 474.294 347C494.027 347 508.294 353.6 517.094 366.8C526.027 380 530.494 398.067 530.494 421C530.494 444.2 526.027 462.4 517.094 475.6C508.294 488.8 494.027 495.4 474.294 495.4C454.56 495.4 440.227 488.8 431.294 475.6C422.494 462.4 418.094 444.2 418.094 421ZM496.894 421C496.894 407.533 495.427 397.2 492.494 390C489.56 382.667 483.494 379 474.294 379C465.094 379 459.027 382.667 456.094 390C453.16 397.2 451.694 407.533 451.694 421C451.694 430.067 452.227 437.6 453.294 443.6C454.36 449.467 456.494 454.267 459.694 458C463.027 461.6 467.894 463.4 474.294 463.4C480.694 463.4 485.494 461.6 488.694 458C492.027 454.267 494.227 449.467 495.294 443.6C496.36 437.6 496.894 430.067 496.894 421Z" fill="white"/>
</svg>
